<mxfile host="app.diagrams.net" modified="2023-11-02T23:03:28.254Z" agent="Mozilla/5.0 (Windows NT 10.0; Win64; x64) AppleWebKit/537.36 (KHTML, like Gecko) Chrome/118.0.0.0 Safari/537.36 Edg/118.0.2088.76" etag="yrzH3Z55MVYYXeZS06e-" version="22.0.8" type="google">
  <diagram name="Page-1" id="ybsDC3Jcpvv5g_iKnwyC">
    <mxGraphModel grid="1" page="1" gridSize="10" guides="1" tooltips="1" connect="1" arrows="1" fold="1" pageScale="1" pageWidth="850" pageHeight="1100" math="0" shadow="0">
      <root>
        <mxCell id="0" />
        <mxCell id="1" parent="0" />
        <mxCell id="eSIvebvctKRUt5Cw1gNA-23" value="" style="ellipse;whiteSpace=wrap;html=1;aspect=fixed;" vertex="1" parent="1">
          <mxGeometry x="469" y="120" width="482" height="482" as="geometry" />
        </mxCell>
        <mxCell id="eSIvebvctKRUt5Cw1gNA-1" value="Fuses are prone to:&lt;br&gt;-aging&lt;br&gt;-shortcircuting&lt;br&gt;-overloading&lt;br&gt;-bad wiring" style="text;html=1;strokeColor=none;fillColor=none;align=center;verticalAlign=middle;whiteSpace=wrap;rounded=0;" vertex="1" parent="1">
          <mxGeometry x="410" y="165" width="130" height="30" as="geometry" />
        </mxCell>
        <mxCell id="eSIvebvctKRUt5Cw1gNA-24" value="&lt;font style=&quot;font-size: 14px;&quot;&gt;H&lt;sub&gt;fuse&lt;/sub&gt;&lt;/font&gt;" style="ellipse;whiteSpace=wrap;html=1;aspect=fixed;fillColor=#CCCCCC;" vertex="1" parent="1">
          <mxGeometry x="670" y="350" width="80" height="80" as="geometry" />
        </mxCell>
        <mxCell id="eSIvebvctKRUt5Cw1gNA-25" value="&lt;font style=&quot;font-size: 14px;&quot;&gt;F&lt;/font&gt;&lt;font style=&quot;font-size: 11.6667px;&quot;&gt;&lt;sub&gt;fuse&lt;/sub&gt;&lt;/font&gt;" style="ellipse;whiteSpace=wrap;html=1;aspect=fixed;fillColor=#A9C4EB;" vertex="1" parent="1">
          <mxGeometry x="830" y="340" width="80" height="80" as="geometry" />
        </mxCell>
        <mxCell id="eSIvebvctKRUt5Cw1gNA-26" value="&lt;font style=&quot;font-size: 14px;&quot;&gt;Aging&lt;/font&gt;" style="ellipse;whiteSpace=wrap;html=1;aspect=fixed;fillColor=#FFFFFF;strokeColor=#F19C99;strokeWidth=2;dashed=1;dashPattern=8 8;" vertex="1" parent="1">
          <mxGeometry x="700" y="490" width="50" height="50" as="geometry" />
        </mxCell>
        <mxCell id="eSIvebvctKRUt5Cw1gNA-27" value="&lt;font size=&quot;1&quot;&gt;Shortcircuting&lt;/font&gt;" style="ellipse;whiteSpace=wrap;html=1;aspect=fixed;fillColor=#FFFFFF;strokeColor=#F19C99;strokeWidth=2;dashed=1;dashPattern=8 8;" vertex="1" parent="1">
          <mxGeometry x="590" y="480" width="50" height="50" as="geometry" />
        </mxCell>
        <mxCell id="eSIvebvctKRUt5Cw1gNA-28" value="" style="shape=flexArrow;endArrow=classic;html=1;rounded=0;width=0.3225806451612903;endSize=1.064804469273743;endWidth=2.980717246350694;strokeColor=#F19C99;" edge="1" parent="1" source="eSIvebvctKRUt5Cw1gNA-26" target="eSIvebvctKRUt5Cw1gNA-24">
          <mxGeometry width="50" height="50" relative="1" as="geometry">
            <mxPoint x="940" y="567" as="sourcePoint" />
            <mxPoint x="950" y="597" as="targetPoint" />
          </mxGeometry>
        </mxCell>
        <mxCell id="eSIvebvctKRUt5Cw1gNA-29" value="" style="shape=flexArrow;endArrow=classic;html=1;rounded=0;width=0.3225806451612903;endSize=1.064804469273743;endWidth=2.980717246350694;strokeColor=#F19C99;" edge="1" parent="1" source="eSIvebvctKRUt5Cw1gNA-27" target="eSIvebvctKRUt5Cw1gNA-24">
          <mxGeometry width="50" height="50" relative="1" as="geometry">
            <mxPoint x="765" y="552" as="sourcePoint" />
            <mxPoint x="726" y="467" as="targetPoint" />
          </mxGeometry>
        </mxCell>
        <mxCell id="eSIvebvctKRUt5Cw1gNA-31" value="&lt;font style=&quot;font-size: 14px;&quot;&gt;Overloading&lt;/font&gt;" style="ellipse;whiteSpace=wrap;html=1;aspect=fixed;fillColor=#FFFFFF;strokeColor=#F19C99;strokeWidth=2;dashed=1;dashPattern=8 8;" vertex="1" parent="1">
          <mxGeometry x="530" y="410" width="50" height="50" as="geometry" />
        </mxCell>
        <mxCell id="eSIvebvctKRUt5Cw1gNA-32" value="" style="shape=flexArrow;endArrow=classic;html=1;rounded=0;width=0.3225806451612903;endSize=1.064804469273743;endWidth=2.980717246350694;strokeColor=#F19C99;" edge="1" parent="1" source="eSIvebvctKRUt5Cw1gNA-31" target="eSIvebvctKRUt5Cw1gNA-24">
          <mxGeometry width="50" height="50" relative="1" as="geometry">
            <mxPoint x="643" y="497" as="sourcePoint" />
            <mxPoint x="682" y="458" as="targetPoint" />
          </mxGeometry>
        </mxCell>
        <mxCell id="eSIvebvctKRUt5Cw1gNA-33" value="" style="shape=flexArrow;endArrow=classic;html=1;rounded=0;fillColor=#000000;width=0.3225806451612903;endSize=1.064804469273743;endWidth=2.980717246350694;" edge="1" parent="1" source="eSIvebvctKRUt5Cw1gNA-24" target="eSIvebvctKRUt5Cw1gNA-25">
          <mxGeometry width="50" height="50" relative="1" as="geometry">
            <mxPoint x="1243" y="166" as="sourcePoint" />
            <mxPoint x="1379" y="245" as="targetPoint" />
          </mxGeometry>
        </mxCell>
        <mxCell id="eSIvebvctKRUt5Cw1gNA-34" value="&lt;font style=&quot;font-size: 10px;&quot;&gt;Incorrect maintenance procedure&lt;/font&gt;" style="ellipse;whiteSpace=wrap;html=1;aspect=fixed;fillColor=#FFFFFF;strokeColor=#F19C99;strokeWidth=2;dashed=1;dashPattern=8 8;" vertex="1" parent="1">
          <mxGeometry x="570" y="270" width="50" height="50" as="geometry" />
        </mxCell>
        <mxCell id="eSIvebvctKRUt5Cw1gNA-35" value="&lt;font style=&quot;font-size: 10px;&quot;&gt;Human Action&amp;nbsp;&lt;/font&gt;" style="ellipse;whiteSpace=wrap;html=1;aspect=fixed;fillColor=#FFFFFF;strokeColor=#F19C99;strokeWidth=2;dashed=1;dashPattern=8 8;" vertex="1" parent="1">
          <mxGeometry x="490" y="270" width="50" height="50" as="geometry" />
        </mxCell>
        <mxCell id="eSIvebvctKRUt5Cw1gNA-36" value="&lt;font style=&quot;font-size: 10px;&quot;&gt;Robot Action&amp;nbsp;&lt;/font&gt;" style="ellipse;whiteSpace=wrap;html=1;aspect=fixed;fillColor=#FFFFFF;strokeColor=#F19C99;strokeWidth=2;dashed=1;dashPattern=8 8;" vertex="1" parent="1">
          <mxGeometry x="615" y="195" width="50" height="50" as="geometry" />
        </mxCell>
        <mxCell id="eSIvebvctKRUt5Cw1gNA-39" value="" style="ellipse;whiteSpace=wrap;html=1;aspect=fixed;fillColor=#000000;strokeColor=#000000;" vertex="1" parent="1">
          <mxGeometry x="620" y="340" width="10" height="10" as="geometry" />
        </mxCell>
        <mxCell id="eSIvebvctKRUt5Cw1gNA-40" value="" style="shape=flexArrow;endArrow=classic;html=1;rounded=0;width=0.3225806451612903;endSize=1.064804469273743;endWidth=2.980717246350694;strokeColor=#F19C99;" edge="1" parent="1" source="eSIvebvctKRUt5Cw1gNA-35" target="eSIvebvctKRUt5Cw1gNA-34">
          <mxGeometry width="50" height="50" relative="1" as="geometry">
            <mxPoint x="642" y="253" as="sourcePoint" />
            <mxPoint x="619" y="295" as="targetPoint" />
          </mxGeometry>
        </mxCell>
        <mxCell id="eSIvebvctKRUt5Cw1gNA-41" value="" style="shape=flexArrow;endArrow=classic;html=1;rounded=0;width=0.3225806451612903;endSize=1.064804469273743;endWidth=2.980717246350694;strokeColor=#F19C99;" edge="1" parent="1" source="eSIvebvctKRUt5Cw1gNA-36" target="eSIvebvctKRUt5Cw1gNA-34">
          <mxGeometry width="50" height="50" relative="1" as="geometry">
            <mxPoint x="662" y="273" as="sourcePoint" />
            <mxPoint x="639" y="315" as="targetPoint" />
          </mxGeometry>
        </mxCell>
        <mxCell id="eSIvebvctKRUt5Cw1gNA-42" value="" style="shape=flexArrow;endArrow=classic;html=1;rounded=0;width=0.3225806451612903;endSize=1.064804469273743;endWidth=2.980717246350694;strokeColor=#F19C99;" edge="1" parent="1" source="eSIvebvctKRUt5Cw1gNA-39" target="eSIvebvctKRUt5Cw1gNA-24">
          <mxGeometry width="50" height="50" relative="1" as="geometry">
            <mxPoint x="610" y="320" as="sourcePoint" />
            <mxPoint x="676" y="421" as="targetPoint" />
          </mxGeometry>
        </mxCell>
        <mxCell id="eSIvebvctKRUt5Cw1gNA-46" value="" style="shape=flexArrow;endArrow=classic;html=1;rounded=0;width=0.3225806451612903;endSize=1.064804469273743;endWidth=2.980717246350694;strokeColor=#F19C99;" edge="1" parent="1" source="eSIvebvctKRUt5Cw1gNA-34" target="eSIvebvctKRUt5Cw1gNA-39">
          <mxGeometry width="50" height="50" relative="1" as="geometry">
            <mxPoint x="589" y="440" as="sourcePoint" />
            <mxPoint x="620" y="330" as="targetPoint" />
          </mxGeometry>
        </mxCell>
        <mxCell id="eSIvebvctKRUt5Cw1gNA-48" value="&lt;b&gt;&lt;font style=&quot;font-size: 18px;&quot;&gt;Fuse&lt;/font&gt;&lt;/b&gt;" style="text;html=1;strokeColor=none;fillColor=none;align=center;verticalAlign=middle;whiteSpace=wrap;rounded=0;" vertex="1" parent="1">
          <mxGeometry x="720" y="150" width="60" height="30" as="geometry" />
        </mxCell>
        <mxCell id="eSIvebvctKRUt5Cw1gNA-49" value="&lt;font style=&quot;font-size: 14px;&quot;&gt;F&lt;/font&gt;&lt;font size=&quot;1&quot; style=&quot;&quot;&gt;&lt;sub&gt;wiring&lt;/sub&gt;&lt;/font&gt;" style="ellipse;whiteSpace=wrap;html=1;aspect=fixed;fillColor=#A9C4EB;" vertex="1" parent="1">
          <mxGeometry x="710" y="220" width="80" height="80" as="geometry" />
        </mxCell>
        <mxCell id="eSIvebvctKRUt5Cw1gNA-50" value="" style="endArrow=classic;html=1;rounded=0;" edge="1" parent="1" source="eSIvebvctKRUt5Cw1gNA-49" target="eSIvebvctKRUt5Cw1gNA-24">
          <mxGeometry width="50" height="50" relative="1" as="geometry">
            <mxPoint x="750" y="350" as="sourcePoint" />
            <mxPoint x="800" y="300" as="targetPoint" />
          </mxGeometry>
        </mxCell>
      </root>
    </mxGraphModel>
  </diagram>
</mxfile>
